<svg xmlns="http://www.w3.org/2000/svg" width="16" height="24" viewBox="0 0 16 24" fill="none">
  <g clip-path="url(#clip0_50_599)">
    <path d="M4.00079 24C6.20835 24 7.99999 22.208 7.99999 20V16H4.00079C1.79323 16 0.00158691 17.792 0.00158691 20C0.00158691 22.208 1.79323 24 4.00079 24Z" fill="#0ACF83"/>
    <path d="M0.00158691 12C0.00158691 9.792 1.79323 8 4.00079 8H7.99999V16H4.00079C1.79323 16 0.00158691 14.208 0.00158691 12Z" fill="#A259FF"/>
    <path d="M0.00158691 4C0.00158691 1.792 1.79323 0 4.00079 0H7.99999V8H4.00079C1.79323 8 0.00158691 6.208 0.00158691 4Z" fill="#F24E1E"/>
    <path d="M8 0H11.9992C14.2068 0 15.9984 1.792 15.9984 4C15.9984 6.208 14.2068 8 11.9992 8H8V0Z" fill="#FF7262"/>
    <path d="M15.9984 12C15.9984 14.208 14.2068 16 11.9992 16C9.79164 16 8 14.208 8 12C8 9.792 9.79164 8 11.9992 8C14.2068 8 15.9984 9.792 15.9984 12Z" fill="#1ABCFE"/>
  </g>
  <defs>
    <clipPath id="clip0_50_599">
      <rect width="16" height="24" fill="white"/>
    </clipPath>
  </defs>
</svg>