<svg xmlns="http://www.w3.org/2000/svg" width="46" height="18" viewBox="0 0 46 18" fill="none">
  <g clip-path="url(#clip0_50_631)">
    <path d="M7.59707 13.3861C7.58296 13.4373 7.52934 13.463 7.43903 13.463H5.69781C5.64348 13.4638 5.58969 13.452 5.54071 13.4282C5.49173 13.4045 5.44889 13.3696 5.4156 13.3262L2.53989 9.62087L1.74124 10.3927V13.2579C1.74501 13.2846 1.74258 13.3118 1.73412 13.3374C1.72567 13.363 1.71144 13.3862 1.69254 13.4053C1.67365 13.4243 1.65062 13.4387 1.62528 13.4472C1.59993 13.4558 1.57297 13.4582 1.54652 13.4544H0.194739C0.168289 13.4582 0.141324 13.4558 0.115979 13.4472C0.0906339 13.4387 0.0676038 13.4243 0.0487118 13.4053C0.0298198 13.3862 0.0155843 13.363 0.00713223 13.3374C-0.00131988 13.3118 -0.00375664 13.2846 1.48054e-05 13.2579V0.196502C-0.00375664 0.169808 -0.00131988 0.142595 0.00713223 0.117016C0.0155843 0.0914372 0.0298198 0.0681948 0.0487118 0.0491287C0.0676038 0.0300625 0.0906339 0.0156958 0.115979 0.0071658C0.141324 -0.00136423 0.168289 -0.00382345 0.194739 -1.72416e-05H1.54652C1.57297 -0.00382345 1.59993 -0.00136423 1.62528 0.0071658C1.65062 0.0156958 1.67365 0.0300625 1.69254 0.0491287C1.71144 0.0681948 1.72567 0.0914372 1.73412 0.117016C1.74258 0.142595 1.74501 0.169808 1.74124 0.196502V8.23954L5.18701 4.72213C5.22251 4.68113 5.26575 4.64767 5.3142 4.62371C5.36266 4.59975 5.41535 4.58577 5.46922 4.58258H7.27253C7.30563 4.57986 7.33871 4.58812 7.36672 4.60611C7.39474 4.62411 7.41617 4.65085 7.42774 4.68226C7.44171 4.71097 7.44727 4.7431 7.44377 4.77488C7.44027 4.80666 7.42786 4.83678 7.40799 4.86169L3.75903 8.41612L7.55756 13.1781C7.58442 13.2046 7.6026 13.2387 7.60967 13.2758C7.61673 13.313 7.61234 13.3515 7.59707 13.3861ZM14.6551 13.4544H13.3033C13.1594 13.4544 13.0888 13.3889 13.0888 13.2579V12.9731C12.442 13.4291 11.6647 13.6582 10.8763 13.6253C10.0985 13.6419 9.3415 13.3703 8.74848 12.862C8.46276 12.6134 8.23549 12.3037 8.08319 11.9554C7.93089 11.6071 7.85737 11.229 7.86799 10.8484C7.86799 9.55536 8.66382 8.6791 10.2555 8.2196C11.1871 7.98208 12.1367 7.82299 13.0945 7.74397C13.1261 7.51164 13.1052 7.27511 13.0336 7.05203C12.9619 6.82894 12.8413 6.62506 12.6807 6.45559C12.5201 6.28611 12.3237 6.15541 12.106 6.07324C11.8884 5.99106 11.6552 5.95953 11.4238 5.981C10.6174 6.00775 9.83836 6.28307 9.19155 6.76992C9.07584 6.83827 8.99118 6.82403 8.93756 6.73289L8.23204 5.72467C8.16713 5.64492 8.18689 5.55378 8.2913 5.43986C9.20312 4.7723 10.2974 4.40615 11.4238 4.39176C12.1755 4.37472 12.9149 4.58608 13.546 4.9984C14.4096 5.57941 14.8404 6.50789 14.8385 7.78384V13.2579C14.842 13.2835 14.8397 13.3096 14.8319 13.3343C14.824 13.3589 14.8108 13.3815 14.7933 13.4003C14.7757 13.4191 14.7541 13.4338 14.7302 13.4431C14.7063 13.4525 14.6807 13.4563 14.6551 13.4544ZM13.0888 9.32467C11.8095 9.45758 10.9347 9.62941 10.4643 9.84017C9.82652 10.1155 9.53678 10.5104 9.59511 11.025C9.61317 11.1662 9.66107 11.3018 9.73556 11.4226C9.81005 11.5435 9.9094 11.6468 10.0269 11.7256C10.2756 11.905 10.5686 12.0115 10.8735 12.0332C11.27 12.084 11.6727 12.0447 12.0521 11.918C12.4315 11.7914 12.778 11.5806 13.0663 11.3012L13.0888 9.32467ZM22.8589 16.8835C22.1421 17.6278 21.1318 18 19.828 18C19.0734 18.0019 18.3314 17.8055 17.6747 17.4304C17.5308 17.3364 17.3615 17.2139 17.1639 17.063C16.9664 16.912 16.7406 16.724 16.4782 16.4933C16.4389 16.4578 16.4148 16.4081 16.4111 16.355C16.4074 16.3018 16.4244 16.2493 16.4584 16.2085L17.3784 15.28C17.3994 15.2598 17.4242 15.2441 17.4514 15.2338C17.4785 15.2235 17.5075 15.2189 17.5365 15.2202C17.5623 15.2203 17.5879 15.2256 17.6116 15.2359C17.6354 15.2462 17.6569 15.2612 17.6747 15.28C18.4028 16.0149 19.1168 16.3851 19.8082 16.3851C21.3867 16.3851 22.176 15.5554 22.176 13.8959V12.862C21.4777 13.4056 20.6099 13.6793 19.7292 13.6338C19.1538 13.6572 18.5815 13.5377 18.0624 13.286C17.5434 13.0342 17.0934 12.6579 16.7519 12.1899C16.0978 11.2635 15.7645 10.1453 15.8037 9.00853C15.7697 7.91018 16.0863 6.82987 16.7068 5.92688C17.0359 5.43673 17.4838 5.03968 18.0079 4.77348C18.532 4.50728 19.1148 4.38078 19.701 4.406C20.5858 4.37563 21.4549 4.64759 22.1675 5.17783V4.78195C22.1638 4.75515 22.1663 4.72786 22.1748 4.70218C22.1832 4.67651 22.1974 4.65314 22.2162 4.63387C22.235 4.61461 22.258 4.59996 22.2833 4.59107C22.3086 4.58218 22.3356 4.57927 22.3622 4.58258H23.714C23.7408 4.57879 23.7682 4.58133 23.7938 4.59001C23.8195 4.59869 23.8428 4.61326 23.862 4.63259C23.8811 4.65192 23.8956 4.67547 23.9042 4.70138C23.9128 4.7273 23.9153 4.75488 23.9116 4.78195V13.6111C23.9172 15.0484 23.5663 16.1392 22.8589 16.8835ZM22.176 7.40505C21.8486 6.56201 21.096 6.14049 19.9183 6.14049C18.3925 6.14049 17.6296 7.10125 17.6296 9.02277C17.6296 10.0918 17.8836 10.8693 18.3915 11.3554C18.5853 11.5463 18.8157 11.6953 19.0685 11.7932C19.3213 11.8912 19.5913 11.936 19.8619 11.925C21.0866 11.925 21.8627 11.5035 22.1901 10.6604L22.176 7.40505ZM32.0561 16.8835C31.3449 17.6259 30.3365 17.9981 29.0308 18C28.2763 18.0015 27.5343 17.8052 26.8776 17.4304C26.7346 17.3373 26.5653 17.2149 26.3696 17.063C26.172 16.912 25.9435 16.724 25.6838 16.4933C25.6637 16.4761 25.6472 16.4551 25.6353 16.4313C25.6234 16.4076 25.6163 16.3817 25.6144 16.3551C25.6126 16.3286 25.616 16.3019 25.6246 16.2768C25.6331 16.2516 25.6465 16.2284 25.6641 16.2085L26.5841 15.28C26.6045 15.2599 26.6288 15.2442 26.6555 15.2339C26.6822 15.2236 26.7107 15.219 26.7393 15.2202C26.7652 15.2201 26.7908 15.2254 26.8146 15.2357C26.8384 15.246 26.8598 15.2611 26.8776 15.28C27.6085 16.0149 28.3196 16.3851 29.0111 16.3851C30.5914 16.3851 31.3816 15.5554 31.3816 13.8959V12.862C30.6821 13.4053 29.8136 13.679 28.932 13.6338C28.358 13.6562 27.7872 13.5363 27.2696 13.2846C26.7521 13.0329 26.3035 12.657 25.9632 12.1899C25.3107 11.2631 24.9803 10.1446 25.0235 9.00853C24.9886 7.9105 25.3042 6.83021 25.9237 5.92688C26.2532 5.43712 26.7012 5.04037 27.2252 4.77422C27.7492 4.50806 28.3318 4.38132 28.9179 4.406C29.8035 4.37655 30.6732 4.64839 31.3873 5.17783V4.78195C31.3836 4.75515 31.3861 4.72786 31.3945 4.70218C31.403 4.67651 31.4172 4.65314 31.436 4.63387C31.4548 4.61461 31.4777 4.59996 31.5031 4.59107C31.5284 4.58218 31.5554 4.57927 31.582 4.58258H32.9338C32.9604 4.57927 32.9874 4.58218 33.0127 4.59107C33.038 4.59996 33.0609 4.61461 33.0798 4.63387C33.0986 4.65314 33.1128 4.67651 33.1212 4.70218C33.1297 4.72786 33.1321 4.75515 33.1285 4.78195V13.6111C33.1247 15.0484 32.7673 16.1392 32.0561 16.8835ZM31.3816 7.40505C31.0542 6.56201 30.3017 6.14049 29.1239 6.14049C27.5812 6.131 26.8098 7.08701 26.8098 9.00853C26.8098 10.0775 27.0648 10.855 27.5746 11.3411C27.7676 11.5324 27.9974 11.6816 28.2498 11.7796C28.5022 11.8776 28.7719 11.9222 29.0421 11.9107C30.2707 11.9107 31.0477 11.4892 31.3731 10.6462L31.3816 7.40505ZM36.1227 13.4544H34.7738C34.7472 13.4581 34.7202 13.4556 34.6947 13.4471C34.6693 13.4385 34.6461 13.4242 34.627 13.4052C34.6079 13.3863 34.5934 13.3631 34.5846 13.3375C34.5758 13.312 34.5729 13.2847 34.5762 13.2579V0.196502C34.5729 0.169653 34.5758 0.142403 34.5846 0.116855C34.5934 0.0913072 34.6079 0.0681442 34.627 0.0491538C34.6461 0.0301634 34.6693 0.0158533 34.6947 0.00732773C34.7202 -0.0011978 34.7472 -0.00371077 34.7738 -1.72416e-05H36.1227C36.1494 -0.00432053 36.1767 -0.00223392 36.2024 0.006074C36.2281 0.0143819 36.2515 0.0286782 36.2707 0.0478077C36.29 0.0669372 36.3045 0.0903636 36.3131 0.116194C36.3217 0.142024 36.3241 0.169535 36.3203 0.196502V13.2579C36.3241 13.2849 36.3217 13.3124 36.3131 13.3382C36.3045 13.364 36.29 13.3875 36.2707 13.4066C36.2515 13.4257 36.2281 13.44 36.2024 13.4483C36.1767 13.4566 36.1494 13.4587 36.1227 13.4544ZM45.9746 9.44429C45.9779 9.47114 45.975 9.49839 45.9662 9.52393C45.9574 9.54948 45.9429 9.57265 45.9238 9.59164C45.9047 9.61063 45.8815 9.62494 45.8561 9.63346C45.8307 9.64199 45.8036 9.6445 45.7771 9.64081H39.4161C39.4808 10.2652 39.7736 10.8429 40.2373 11.2614C40.8021 11.7366 41.5202 11.9859 42.2551 11.962C42.9483 11.9692 43.6259 11.7548 44.1911 11.3497C44.3096 11.2699 44.4084 11.2699 44.4733 11.3497L45.3933 12.2981C45.4977 12.4035 45.4977 12.4946 45.3933 12.5829C44.4518 13.2956 43.302 13.6714 42.1253 13.6509C41.5087 13.6683 40.8951 13.558 40.3223 13.3268C39.7496 13.0956 39.2299 12.7484 38.7952 12.3066C38.3657 11.8604 38.0301 11.3312 37.8084 10.7507C37.5868 10.1702 37.4838 9.55048 37.5055 8.92878C37.4913 8.32401 37.5965 7.72242 37.815 7.1591C38.0335 6.59579 38.361 6.08202 38.7783 5.64777C39.1743 5.23978 39.6506 4.92002 40.1765 4.70909C40.7024 4.49816 41.2663 4.40073 41.8318 4.42308C42.3935 4.40859 42.9519 4.51458 43.47 4.73404C43.9881 4.95351 44.4541 5.28145 44.8373 5.69619C45.2528 6.13353 45.5713 6.65504 45.7717 7.22612C45.9722 7.7972 46.05 8.40478 46 9.00853L45.9746 9.44429ZM43.4093 6.55062C42.972 6.14578 42.3969 5.92649 41.8036 5.93827C41.2327 5.93287 40.6806 6.14433 40.2571 6.53068C39.8078 6.93086 39.5089 7.47498 39.4104 8.0715H44.1261C44.1239 7.78057 44.0585 7.49366 43.9347 7.23092C43.8109 6.96818 43.6315 6.73598 43.4093 6.55062Z" fill="#20BEFF"/>
  </g>
  <defs>
    <clipPath id="clip0_50_631">
      <rect width="46" height="18" fill="white"/>
    </clipPath>
  </defs>
</svg>