<svg xmlns="http://www.w3.org/2000/svg" width="24" height="24" viewBox="0 0 24 24" fill="none">
  <g clip-path="url(#clip0_50_634)">
    <path d="M1.44408 1.03516L14.724 0.0542821C16.3553 -0.0856379 16.7743 0.00868208 17.8001 0.754362L22.0392 3.74068C22.7383 4.25428 22.9711 4.3942 22.9711 4.9534V21.3317C22.9711 22.3582 22.5984 22.9654 21.2935 23.058L5.87208 23.9921C4.89288 24.0384 4.42656 23.8985 3.91368 23.245L0.792 19.1856C0.23208 18.4385 0 17.8793 0 17.2256V2.66716C0 1.82788 0.37272 1.12804 1.44408 1.03516Z" fill="white"/>
    <path fill-rule="evenodd" clip-rule="evenodd" d="M14.724 0.0545221L1.44408 1.0354C0.37272 1.12804 0 1.82812 0 2.66716V17.2256C0 17.8791 0.23208 18.4383 0.792 19.1856L3.91368 23.2448C4.42656 23.8983 4.89288 24.0384 5.87208 23.9919L21.2938 23.0583C22.5977 22.9654 22.9714 22.3582 22.9714 21.332V4.95364C22.9714 4.42324 22.7618 4.27036 22.145 3.81772L17.8001 0.754362C16.7746 0.00868208 16.3553 -0.0856379 14.724 0.0542821V0.0545221ZM6.2208 4.68556C4.96152 4.77028 4.67592 4.78948 3.96072 4.20796L2.14248 2.76172C1.95768 2.57452 2.05056 2.341 2.51616 2.29444L15.2825 1.36156C16.3546 1.26796 16.9128 1.64164 17.3321 1.96804L19.5216 3.55444C19.6152 3.60172 19.848 3.88084 19.5679 3.88084L6.384 4.67452L6.2208 4.68556ZM4.75272 21.192V7.28812C4.75272 6.68092 4.9392 6.40084 5.49744 6.3538L20.64 5.46724C21.1536 5.42092 21.3857 5.74732 21.3857 6.35356V20.1648C21.3857 20.772 21.2921 21.2856 20.4538 21.332L5.96328 22.172C5.12496 22.2183 4.75296 21.9392 4.75296 21.192H4.75272ZM19.0567 8.03356C19.1496 8.45356 19.0567 8.87356 18.6367 8.92156L17.9383 9.06004V19.3256C17.3318 19.652 16.7736 19.8384 16.307 19.8384C15.5614 19.8384 15.3751 19.6049 14.8166 18.9056L10.2494 11.72V18.672L11.6942 18.9992C11.6942 18.9992 11.6942 19.8392 10.5286 19.8392L7.31496 20.0256C7.22136 19.8384 7.31496 19.3721 7.64064 19.2792L8.47992 19.0464V9.85444L7.3152 9.76012C7.2216 9.34012 7.4544 8.73364 8.1072 8.6866L11.5553 8.45452L16.3073 15.733V9.2938L15.096 9.1546C15.0024 8.64028 15.3751 8.2666 15.8407 8.221L19.0567 8.03356Z" fill="black"/>
  </g>
  <defs>
    <clipPath id="clip0_50_634">
      <rect width="24" height="24" fill="white"/>
    </clipPath>
  </defs>
</svg>