<svg xmlns="http://www.w3.org/2000/svg" width="34" height="34" viewBox="0 0 34 34" fill="none">
  <path d="M21.2131 18.3848C21.2131 17.2596 20.7661 16.1804 19.9704 15.3848C19.1748 14.5891 18.0957 14.1421 16.9704 14.1421M16.9704 14.1421C15.8452 14.1421 14.7661 14.5891 13.9704 15.3848C13.1748 16.1804 12.7278 17.2596 12.7278 18.3848M16.9704 14.1421C18.5325 14.1421 19.7989 12.8758 19.7989 11.3137C19.7989 9.75161 18.5325 8.48528 16.9704 8.48528C15.4083 8.48528 14.142 9.75161 14.142 11.3137C14.142 12.8758 15.4083 14.1421 16.9704 14.1421ZM5.65674 27.5772V6.36396C5.65674 5.42628 6.02923 4.52701 6.69227 3.86396C7.35531 3.20092 8.25459 2.82843 9.19227 2.82843H26.8699C27.245 2.82843 27.6047 2.97743 27.8699 3.24264C28.1352 3.50786 28.2842 3.86757 28.2842 4.24264V29.6985C28.2842 30.0736 28.1352 30.4333 27.8699 30.6985C27.6047 30.9637 27.245 31.1127 26.8699 31.1127H9.19227C8.25459 31.1127 7.35531 30.7402 6.69227 30.0772C6.02923 29.4141 5.65674 28.5148 5.65674 27.5772ZM5.65674 27.5772C5.65674 26.6395 6.02923 25.7402 6.69227 25.0772C7.35531 24.4141 8.25459 24.0416 9.19227 24.0416H28.2842" stroke="black" stroke-width="2" stroke-linecap="round" stroke-linejoin="round"/>
</svg>