<svg xmlns="http://www.w3.org/2000/svg" width="34" height="34" viewBox="0 0 34 34" fill="none">
  <path d="M14.5664 21.2132H9.89953C8.39924 21.2132 6.9604 21.8092 5.89953 22.8701C4.83866 23.9309 4.24268 25.3698 4.24268 26.8701V29.6985M29.6985 29.6985L27.0115 27.0115M19.799 9.8995C19.799 13.0237 17.2664 15.5564 14.1422 15.5564C11.018 15.5564 8.48532 13.0237 8.48532 9.8995C8.48532 6.7753 11.018 4.24265 14.1422 4.24265C17.2664 4.24265 19.799 6.7753 19.799 9.8995ZM28.2843 24.0416C28.2843 26.3848 26.3848 28.2843 24.0417 28.2843C21.6985 28.2843 19.799 26.3848 19.799 24.0416C19.799 21.6985 21.6985 19.799 24.0417 19.799C26.3848 19.799 28.2843 21.6985 28.2843 24.0416Z" stroke="black" stroke-width="2" stroke-linecap="round" stroke-linejoin="round"/>
</svg>